HIERARCHY
ROOT Hips
{
	OFFSET	0.00	0.00	0.00
	CHANNELS 6 Xposition Yposition Zposition Zrotation Xrotation Yrotation
	JOINT Spine
	{
		OFFSET	 0.00	0.01	 0.00
		CHANNELS 3 Zrotation Xrotation Yrotation
		JOINT Spine1
		{
			OFFSET	 0.00	 2.45913012437421	 0.00
			CHANNELS 3 Zrotation Xrotation Yrotation
            JOINT Neck
            {
                OFFSET	 0.00	 2.48462964506057	 0.00
                CHANNELS 3 Zrotation Xrotation Yrotation
                JOINT Head
                {
                    OFFSET	 0.00	 0.927524780924562	 0.00
                    CHANNELS 3 Zrotation Xrotation Yrotation
                    End Site 
                    {
                        OFFSET	 0.00	 1.14999962169752	 0.00
                    }
                }
            }
			JOINT LeftShoulder
			{
				OFFSET	 0.00	 2.48462964506057	 0.00
				CHANNELS 3 Zrotation Xrotation Yrotation
				JOINT LeftUpArm
				{
					OFFSET	 0.00	 1.24881979654096	 0.00
					CHANNELS 3 Zrotation Xrotation Yrotation
					JOINT LeftForeArm
					{
						OFFSET	 0.00	2.59758046908119	 0.00
						CHANNELS 3 Zrotation Xrotation Yrotation
						JOINT LeftHand
						{
							OFFSET	 0.00	2.45542024364365	 0.00
							CHANNELS 3 Zrotation Xrotation Yrotation
							JOINT LeftHandThumb 
							{
								OFFSET	 0.00	0.00	 0.00
								CHANNELS 3 Zrotation Xrotation Yrotation
								End Site
								{
									OFFSET	 0.00	0.00	1.00000003353624
								}
							}
							JOINT L_Wrist_End 
							{
								OFFSET	 0.00	0.99999967115358	 0.00
								CHANNELS 3 Zrotation Xrotation Yrotation
								End Site 
								{
									OFFSET	 0.00	 0.00	 0.00
								}
							}
						}
					}
				}
			}
			JOINT RightShoulder
			{
				OFFSET	 0.00	 2.48462964506057	 0.00
				CHANNELS 3 Zrotation Xrotation Yrotation
				JOINT RightUpArm
				{
					OFFSET	 0.00	 1.24881979654096	 0.00
					CHANNELS 3 Zrotation Xrotation Yrotation
					JOINT RightForeArm
					{
						OFFSET	 0.00	2.59758046908119	 0.00
						CHANNELS 3 Zrotation Xrotation Yrotation
						JOINT RightHand
						{
							OFFSET	 0.00	2.45542024364365	 0.00
							CHANNELS 3 Zrotation Xrotation Yrotation
							JOINT RightHandThumb 
							{
								OFFSET	 0.00	0.00	 0.00
								CHANNELS 3 Zrotation Xrotation Yrotation
								End Site
								{
									OFFSET	 0.00	0.00	1.00000003353624
								}
							}
							JOINT R_Wrist_End 
							{
								OFFSET	 0.00	0.99999967115358	 0.00
								CHANNELS 3 Zrotation Xrotation Yrotation
								End Site 
								{
									OFFSET	 0.00	 0.00	 0.00
								}
							}
						}
					}
				}
			}
		}
	}
	JOINT LeftUpLeg
	{
		OFFSET	 1.2719394002717	 0.00	 0.00
		CHANNELS 3 Zrotation Xrotation Yrotation
		JOINT LeftLowLeg
		{
			OFFSET	 0.00	-4.3429100912261	 0.00
			CHANNELS 3 Zrotation Xrotation Yrotation
			JOINT LeftFoot
			{
				OFFSET	 0.00	-4.48767017425826	 0.00
				CHANNELS 3 Zrotation Xrotation Yrotation
				JOINT LeftToeBase
                {
                    OFFSET	 0.00	0.00	 1.51507020887566
                    CHANNELS 3 Zrotation Xrotation Yrotation
                    End Site 
                    {
                        OFFSET	 0.00	0.00	 0.75000010571191
                    }
                }
			}
		}
	}
	JOINT RightUpLeg
	{
		OFFSET	 -1.2719393604653	 0.00	 0.00
		CHANNELS 3 Zrotation Xrotation Yrotation
		JOINT RightLowLeg
		{
			OFFSET	 0.00	-4.3429100912261	 0.00
			CHANNELS 3 Zrotation Xrotation Yrotation
			JOINT RightFoot
			{
				OFFSET	 0.00	-4.48767017425826	 0.00
				CHANNELS 3 Zrotation Xrotation Yrotation
				JOINT RightToeBase
                {
                    OFFSET	 0.00	0.00	 1.51507020887566
                    CHANNELS 3 Zrotation Xrotation Yrotation
                    End Site 
                    {
                        OFFSET	 0.00	0.00	 0.749999965609858
                    }
                }   
			}
		}
	}
}
MOTION 
Frames:	16 
Frame Time: 0.02 
  -1.7212699890136718 5.329180297851562 0.8365640258789062 -5.88649 5.98545 355.534 14.7892 5.27923 15.4922 8.79356 40.0048 -20.8063 174.596 84.7592 -210.282 77.1703 -45.4317 79.4785 -105.92 -3.94115 -9.39138 -38.3691 -40.5498 8.04738 0.0 78.9564 0.0 38.0609 -0.236765 51.9703 0.0 0.0 0.0 0.0 0.0 0.0 100.1718 4.78333 -2.68601 59.8143 -55.4409 -2.69652 0.0 103.243 0.0 -29.8328 16.7659 -49.6304 0.0 0.0 0.0 0.0 0.0 0.0 6.61272 -7.57572 -3.33618 0.0 9.32304 0.0 -0.0563526 15.285279 -354.445 0.0 -27.3488 0.0 2.29782 -6.36566 357.259 0.0 4.06767 0.0 15.9393 31.2091 -37.9693 0.0 -34.1683 0.0 
  -1.718939971923828 5.32656982421875 0.8378579711914063 -5.84181 5.98946 355.676 14.8405 5.15549 15.3533 8.92459 40.0923 -20.8918 175.924 84.9109 -211.56 77.2822 -45.484 79.5642 -105.9222 -4.0113 -9.40488 -38.3534 -40.3836 8.19843 0.0 78.8552 0.0 38.0381 -0.245337 51.8958 0.0 0.0 0.0 0.0 0.0 0.0 100.1807 4.8432 -2.86387 60.0959 -55.4825 -2.28369 0.0 103.441 0.0 -29.8343 16.8116 -49.7416 0.0 0.0 0.0 0.0 0.0 0.0 6.60298 -7.66549 -3.11556 0.0 9.39525 0.0 -0.451249 15.296855 -354.341 0.0 -27.1935 0.0 2.17765 -6.18252 357.063 0.0 3.74048 0.0 16.4761 31.5707 -37.7251 0.0 -34.2229 0.0 
  -1.715540008544922 5.324710083007813 0.8371109771728515 -5.83883 5.97374 355.787 14.9412 5.12183 15.2484 9.0081 40.1003 -20.9466 176.495 85.0436 -212.121 77.3004 -45.5345 79.532 -105.9309 -4.06399 -9.42448 -38.3013 -40.237 8.39523 0.0 78.764 0.0 38.0222 -0.282295 51.8349 0.0 0.0 0.0 0.0 0.0 0.0 100.185196 4.90609 -2.90152 60.2801 -55.667 -2.00535 0.0 103.627 0.0 -29.8379 16.8064 -49.777 0.0 0.0 0.0 0.0 0.0 0.0 6.61912 -7.77202 -2.9475 0.0 9.57288 0.0 -0.458135 15.346023 -354.348 0.0 -27.145401 0.0 2.08987 -6.2797 357.018 0.0 3.89666 0.0 17.0462 31.9193 -37.5725 0.0 -34.2467 0.0 
  -1.7118499755859375 5.323469848632812 0.8345330047607422 -5.82998 5.88853 355.848 15.0277 5.19863 15.1782 9.07028 40.0827 -21.0032 176.719 85.1366 -212.336 77.3819 -45.5455 79.6448 -105.9346 -4.10779 -9.42225 -38.2764 -40.1054 8.53839 0.0 78.6914 0.0 37.9901 -0.300665 51.7842 0.0 0.0 0.0 0.0 0.0 0.0 100.1162 4.96337 -3.00123 60.5706 -55.7445 -1.70409 0.0 103.769 0.0 -29.851 16.7986 -49.8439 0.0 0.0 0.0 0.0 0.0 0.0 6.62366 -7.80413 -2.85253 0.0 9.72832 0.0 -0.772899 15.353011 -354.2 0.0 -27.0509 0.0 1.96893 -6.56454 357.325 0.0 4.54552 0.0 17.779 32.0103 -37.4654 0.0 -34.5502 0.0 
  -1.7089599609375 5.323150024414063 0.8317340087890625 -5.84702 5.74789 355.937 15.1294 5.30869 15.0984 9.13362 40.1052 -21.1056 176.791 85.2197 -212.385 77.424 -45.5019 79.7762 -105.9191 -4.14154 -9.52227 -38.2208 -40.0658 8.70577 0.0 78.662 0.0 37.9618 -0.363013 51.7224 0.0 0.0 0.0 0.0 0.0 0.0 100.0672 5.0309 -3.09465 60.8453 -55.7801 -1.40377 0.0 103.89 0.0 -29.8307 16.7906 -49.9149 0.0 0.0 0.0 0.0 0.0 0.0 6.64623 -7.78857 -2.73426 0.0 9.89315 0.0 -0.821942 15.359219 -354.095 0.0 -27.210499 0.0 1.88696 -6.89127 357.594 0.0 5.39217 0.0 18.263 32.0148 -37.5179 0.0 -34.7057 0.0 
  -1.7057200622558595 5.32364990234375 0.8291110229492188 -5.84122 5.68015 356.035 15.2138 5.32482 15.0262 9.20432 40.1719 -21.1737 176.761 85.3221 -212.314 77.4464 -45.4165 79.801 -105.8919 -4.11051 -9.62296 -38.1866 -40.0459 8.8589 0.0 78.6322 0.0 37.9359 -0.37158 51.7001 0.0 0.0 0.0 0.0 0.0 0.0 100.0283 5.05045 -3.13494 61.0763 -55.817 -1.13752 0.0 104.001 0.0 -29.8212 16.8063 -49.9388 0.0 0.0 0.0 0.0 0.0 0.0 6.63573 -7.82288 -2.65925 0.0 10.0049 0.0 -0.890342 15.285154 -353.918 0.0 -27.3421 0.0 1.78629 -7.28713 357.483 0.0 6.25282 0.0 18.6932 31.8689 -37.3766 0.0 -34.9998 0.0 
  -1.70177001953125 5.326209716796875 0.825615005493164 -5.89291 5.83009 356.057 15.3988 5.20117 15.051 9.0855 40.2292 -21.1511 176.777 85.3725 -212.271 77.4143 -45.2945 79.7414 -105.854004 -4.03201 -9.62466 -38.2176 -40.0477 8.81522 0.0 78.6388 0.0 37.9344 -0.382498 51.6996 0.0 0.0 0.0 0.0 0.0 0.0 100.0482 5.09596 -3.13496 61.2043 -55.8503 -0.997274 0.0 104.039 0.0 -29.824 16.8068 -49.9662 0.0 0.0 0.0 0.0 0.0 0.0 6.69026 -8.02565 -2.49403 0.0 10.0691 0.0 -0.784554 15.217783 -353.799 0.0 -27.2791 0.0 1.78883 -7.72297 357.29 0.0 6.75791 0.0 18.6632 31.9448 -37.1961 0.0 -34.912903 0.0 
  -1.6982499694824218 5.330999755859375 0.8163780212402344 -6.09873 5.77624 355.839 15.6774 5.46654 15.201 8.92993 40.2095 -21.048 177.535 85.4059 -212.925 77.4261 -45.1521 79.6252 -105.8517 -3.95174 -9.66534 -38.2196 -40.0402 8.79341 0.0 78.6423 0.0 37.9146 -0.399812 51.7634 0.0 0.0 0.0 0.0 0.0 0.0 100.0539 5.12745 -3.2264 61.409 -55.7388 -0.748145 0.0 104.072 0.0 -29.7738 16.8269 -50.0343 0.0 0.0 0.0 0.0 0.0 0.0 6.93105 -7.99008 -1.94863 0.0 10.1535 0.0 -0.637559 15.116263 -353.83 0.0 -27.467701 0.0 1.98338 -8.0331 357.48 0.0 7.28319 0.0 18.7473 32.178497 -37.27 0.0 -34.6138 0.0 
  -1.6969999694824218 5.33301025390625 0.8127130126953125 -6.16127 5.89288 355.727 15.7889 5.46135 15.3097 8.75937 40.165 -20.9553 177.189 85.3546 -212.553 77.367 -45.0569 79.6021 -105.8357 -3.87233 -9.63963 -38.2203 -40.1043 8.73464 0.0 78.6641 0.0 37.9453 -0.392542 51.8025 0.0 0.0 0.0 0.0 0.0 0.0 100.0711 5.14569 -3.1555 61.3967 -55.7746 -0.79636 0.0 104.041 0.0 -29.787 16.8136 -50.0258 0.0 0.0 0.0 0.0 0.0 0.0 7.02265 -8.10274 -1.68248 0.0 10.1809 0.0 -0.552206 15.051847 -353.86 0.0 -27.503101 0.0 2.06562 -8.29168 357.686 0.0 7.48331 0.0 18.7853 32.254997 -37.3839 0.0 -34.400497 0.0 
  -1.6970500183105468 5.333779907226562 0.8106490325927734 -6.18748 5.7384 355.614 15.8189 5.638 15.3777 8.69837 40.1718 -20.9712 179.205 85.3149 -214.434 77.2288 -44.9639 79.3316 -105.7916 -3.77573 -9.57264 -38.3169 -40.1902 8.57598 0.0 78.6936 0.0 37.9535 -0.397337 51.8862 0.0 0.0 0.0 0.0 0.0 0.0 99.99645 5.24992 -3.25934 61.6607 -55.7088 -0.624214 0.0 104.032 0.0 -29.7569 16.7956 -50.0554 0.0 0.0 0.0 0.0 0.0 0.0 7.05862 -7.93814 -1.41638 0.0 10.21 0.0 -0.441169 14.936034 -353.994 0.0 -27.900799 0.0 2.10792 -8.17653 357.977 0.0 7.49324 0.0 18.9808 32.310898 -37.5145 0.0 -34.3376 0.0 
  -1.6991499328613282 5.331669921875 0.8140979766845703 -6.01274 5.90346 355.751 15.6541 5.31579 15.3062 8.66555 40.2396 -21.0747 -178.814 85.3147 -216.323 76.9285 -44.9553 79.0727 -105.7159 -3.70781 -9.47898 -38.4477 -40.3685 8.34282 0.0 78.7668 0.0 37.9523 -0.388106 51.9018 0.0 0.0 0.0 0.0 0.0 0.0 99.86792 5.34023 -3.35308 61.852 -55.5855 -0.645579 0.0 103.952 0.0 -29.7613 16.8294 -50.0642 0.0 0.0 0.0 0.0 0.0 0.0 6.87566 -8.11931 -1.56591 0.0 10.1842 0.0 -0.322864 14.959095 -354.084 0.0 -27.8143 0.0 1.98399 -8.05838 358.108 0.0 7.00661 0.0 18.9489 32.348198 -37.5864 0.0 -34.1578 0.0 
  -1.7020700073242188 5.329310302734375 0.818727035522461 -5.86783 5.71452 355.771 15.4794 5.36542 15.2795 8.62479 40.2941 -21.2804 -173.582 85.2904 -221.35 76.6728 -45.0279 78.6817 -105.6714 -3.68607 -9.34912 -38.5663 -40.5736 8.03239 0.0 78.8625 0.0 37.9823 -0.377708 51.9116 0.0 0.0 0.0 0.0 0.0 0.0 99.75748 5.49888 -3.3722 61.9407 -55.5551 -0.812675 0.0 103.927 0.0 -29.7707 16.6069 -50.0926 0.0 0.0 0.0 0.0 0.0 0.0 6.7086 -7.86181 -1.69871 0.0 10.0596 0.0 -0.382094 14.975858 -354.141 0.0 -27.9009 0.0 1.88613 -7.483 358.473 0.0 6.27224 0.0 19.0667 32.6562 -37.6358 0.0 -34.2295 0.0 
  -1.7032000732421875 5.330089721679688 0.8177010345458985 -5.83672 5.82185 355.583 15.4595 5.34516 15.4124 8.33592 40.2734 -21.3201 -166.872 85.1763 -227.791 76.5443 -45.1357 78.2741 -105.687 -3.65631 -9.21979 -38.6312 -40.8149 7.64041 0.0 78.9926 0.0 37.9995 -0.367963 51.9893 0.0 0.0 0.0 0.0 0.0 0.0 99.74425 5.66348 -3.25401 61.7551 -55.5553 -1.1691 0.0 103.752 0.0 -29.7259 16.8328 -50.0245 0.0 0.0 0.0 0.0 0.0 0.0 6.71331 -7.85622 -1.53269 0.0 9.92258 0.0 -0.434537 14.980638 -354.186 0.0 -27.8765 0.0 1.94213 -7.35431 359.163 0.0 5.6987 0.0 19.0779 33.215 -37.6327 0.0 -34.0735 0.0 
  -1.7050799560546874 5.330289916992188 0.8163330078125 -5.81821 5.89516 355.333 15.477 5.40219 15.6518 7.87967 40.2504 -21.3576 -162.435 85.0647 -232.057 76.3712 -45.2321 78.1186 -105.3031 -3.78228 -8.42828 -39.5906 -40.5362 6.48939 0.0 79.0117 0.0 38.0518 -0.223812 52.1963 0.0 0.0 0.0 0.0 0.0 0.0 99.52435 5.67205 -3.66469 62.0087 -54.8223 -1.42819 0.0 103.433 0.0 -29.7396 16.8339 -49.9532 0.0 0.0 0.0 0.0 0.0 0.0 6.75976 -7.76032 -1.10798 0.0 9.70107 0.0 -0.328723 15.037018 -354.352 0.0 -27.9774 0.0 1.99277 -7.22477 359.893 0.0 5.16342 0.0 19.6897 33.7536 -37.6453 0.0 -33.7962 0.0 
  -1.7072999572753906 5.330070190429687 0.8158670043945313 -5.70122 6.1752 355.104 15.4101 5.26272 15.9047 7.30662 40.149 -21.3913 -156.253 84.812 -237.97 76.0983 -45.3634 77.7965 -105.3195 -3.65809 -8.34192 -39.5102 -41.1241 6.03768 0.0 79.3059 0.0 38.0815 -0.213993 52.3401 0.0 0.0 0.0 0.0 0.0 0.0 99.27333 5.73411 -3.70016 62.0178 -54.4046 -2.06136 0.0 103.028 0.0 -29.7091 16.831 -49.8706 0.0 0.0 0.0 0.0 0.0 0.0 6.74335 -7.83745 -0.613339 0.0 9.3893 0.0 -0.261502 15.20314 -354.573 0.0 -28.0338 0.0 1.94446 -7.34997 360.41 0.0 4.71188 0.0 20.2914 34.381203 -37.3924 0.0 -33.0617 0.0 
  -1.7111300659179687 5.327160034179688 0.8171730041503906 -5.52203 6.23485 354.89 15.2253 5.29184 16.1492 6.79756 40.046 -21.4991 -151.044 84.6051 -242.984 75.8564 -45.5612 77.5635 -105.0884 -3.64682 -7.81392 -40.033 -41.3585 5.13969 0.0 79.5183 0.0 38.1418 -0.121805 52.6219 0.0 0.0 0.0 0.0 0.0 0.0 99.14857 5.83038 -3.74511 61.8623 -54.0861 -2.72579 0.0 102.671 0.0 -29.7272 16.8321 -49.6552 0.0 0.0 0.0 0.0 0.0 0.0 6.65782 -7.63447 -0.0908053 0.0 8.94759 0.0 -0.217953 15.394052 -354.801 0.0 -28.0415 0.0 1.79986 -7.31442 360.88 0.0 4.4032 0.0 20.9582 34.8983 -37.0272 0.0 -32.2593 0.0 
